<?xml version="1.0" encoding="UTF-8"?>
<svg id="Layer_2" data-name="Layer 2" xmlns="http://www.w3.org/2000/svg" viewBox="0 0 289.69 286.46">
  <defs>
    <style>
      .cls-1 {
        fill: #003974;
      }

      .cls-2 {
        fill: #111827;
      }

      .cls-3 {
        fill: #f4f4f4;
      }
    </style>
  </defs>
  <g id="Layer_4" data-name="Layer 4">
    <g>
      <path class="cls-3" d="M164.62,52.68c-.82.19-1.64.32-2.35.41-6.46.87-26.8.9-34.23.19-.3-2.29,2.78-2.25,6.45-2.25,4.16,0,11.71-.15,22.17,0,5.5.08,7.4.89,7.96,1.64Z"/>
      <path class="cls-1" d="M142,61.38s.04.05.07.07c.06.07.13.14.19.21.09.1.18.19.27.27.09.08.17.16.26.23.07.06.14.12.22.18.26.2.53.36.8.48.07.03.14.06.2.08.06.02.12.04.17.06.09.03.18.05.27.07.06.01.12.02.19.03.08.01.16.02.23.02.04,0,.08,0,.11,0,0,0,0,0,.01,0,.03,0,.07,0,.1,0,.05,0,.1,0,.15,0,.07,0,.13-.01.2-.03.19-.03.38-.09.57-.16.12-.05.24-.1.36-.16.11-.06.23-.13.34-.2.19-.12.37-.26.56-.43.1-.09.2-.18.3-.28.07-.07.14-.15.22-.23.03-.03.06-.06.09-.09.02-.03.05-.05.07-.08.03-.03.06-.07.09-.11.09-.1.17-.21.26-.32.06-.07.11-.15.17-.23.05-.07.1-.14.15-.21.05-.08.11-.16.16-.24.18-.28.36-.58.54-.9.24-.44.48-.91.72-1.42.36-.8.77-1.94,1.19-3.27.34-1.06.69-2.23,1.05-3.44,1.01-3.42,2.04-7.15,2.88-9.37.05-.14.11-.28.16-.4.1-.25.22-.5.34-.74.22-.43.47-.84.75-1.24.07-.1.14-.2.21-.29.13-.17.26-.34.39-.51.24-.3.48-.58.73-.86.38-.42.77-.81,1.14-1.16.56-.53,1.08-.97,1.5-1.3.27-.22.5-.39.66-.5.19-.14.37-.27.55-.42.36-.31.7-.61,1.02-.91,1.49-1.39,2.64-2.74,3.52-4.06.55-.83,1-1.65,1.36-2.46.64-1.43,1-2.82,1.2-4.18.18-1.29.21-2.54.16-3.76-.02-.57-.06-1.14-.1-1.7,0-.11-.02-.22-.03-.33-.08-.69-.25-1.49-.52-2.36-.32-1.02-.79-2.14-1.41-3.28-.61-1.11-1.37-2.25-2.31-3.36-.86-1.02-1.86-2-3.02-2.92-.43-.34-.88-.67-1.35-.99-.11-.08-.23-.15-.35-.23-.08-.05-.16-.1-.24-.15-.08-.05-.15-.1-.23-.14-.02-.01-.04-.03-.06-.04-.03-.02-.05-.03-.08-.05-.15-.09-.3-.18-.46-.27-.21-.12-.43-.24-.66-.36-.24-.13-.48-.25-.73-.37-.19-.09-.39-.18-.59-.27-.21-.09-.42-.18-.64-.27-.18-.08-.37-.15-.56-.22-.43-.16-.87-.32-1.32-.46-.34-.11-.69-.21-1.05-.31-.85-.23-1.74-.42-2.67-.58-.7-.12-1.42-.21-2.17-.29-.49-.05-.98-.08-1.49-.11-.41-.02-.82-.03-1.24-.04-.19,0-.37,0-.56,0-.1,0-.2,0-.31,0-.31,0-.61,0-.92.02-.36.01-.71.03-1.05.05-.35.02-.69.05-1.03.08-.41.04-.81.09-1.2.14-.47.06-.93.13-1.38.22-.55.1-1.08.22-1.59.34-.36.09-.71.18-1.06.28-.12.03-.23.06-.35.1-.21.06-.42.14-.62.2-.71.24-1.39.5-2.03.78-.94.41-1.81.86-2.62,1.35-.82.49-1.58,1.02-2.28,1.58-.88.7-1.67,1.43-2.37,2.19-1.2,1.29-2.15,2.65-2.88,3.96-.37.66-.68,1.31-.94,1.94-.43,1.02-.72,1.98-.9,2.83-.1.48-.16.92-.19,1.32,0,.08-.01.17-.02.25-.09,1.25-.14,2.53-.05,3.85.09,1.32.31,2.68.77,4.07.31.94.73,1.9,1.29,2.88.93,1.64,2.25,3.33,4.11,5.06.32.3.66.6,1.01.9.17.15.35.29.54.43.12.09.31.22.53.4.41.31.95.76,1.55,1.31.32.3.65.62.99.97.16.17.33.35.49.54.11.12.22.25.33.38.13.15.25.31.37.46.35.45.67.93.95,1.42.22.38.41.77.58,1.17.04.11.09.23.13.35.84,2.22,1.89,5.98,2.9,9.43.23.77.45,1.52.67,2.24.48,1.55.94,2.94,1.35,3.95.07.18.15.36.22.51.09.2.19.4.28.59.14.29.29.56.43.83.1.18.2.35.3.52.21.35.43.67.64.96.11.15.22.29.34.43.02.02.04.05.06.07Z"/>
      <path class="cls-1" d="M289.1,173.66c-5.33-41.05-37.37-62.93-63.9-77.07-18.47-9.84-36.73-15.88-49.58-19.71-5.6-1.67-10.18-2.92-13.29-3.88-10.26-3.16-12.75-5.36-17.42-5.36-5.03,0-7.29,2.19-17.56,5.36-1.75.54-3.97,1.17-6.57,1.92-12.62,3.62-34.3,9.95-56.3,21.67C37.96,110.73,5.91,132.61.59,173.66c-5.26,40.54,25.55,79.29,58.96,95.17.42.2.84.4,1.26.59,33.89,15.49,62.43,17.04,82.77,17.04s51.41-1.55,85.3-17.04c1.61-.74,3.22-1.53,4.81-2.37,32-16.86,60.48-54.29,55.41-93.39ZM265.16,196.87c-1.03,14.14-7.36,27.88-19.43,37.95-12.07,10.07-32.14,17.36-53.33,21.53-21.19,4.16-64.27,8.55-105.07-2.36-40.79-10.91-48.15-23.49-54.48-32.4-6.33-8.91-9.36-24.72-6.81-37.4,3.29-16.39,15.14-33.73,43.57-43.25,28.87-9.67,80.91-13.39,116.99-7.52,36.08,5.87,50.93,13.23,61.51,22.66,10.59,9.42,18.07,26.66,17.04,40.79Z"/>
      <path class="cls-3" d="M244.02,236.19c-.51.39-1.03.77-1.56,1.15-2,1.43-4.17,2.81-6.48,4.11-1.44.82-2.95,1.61-4.5,2.38-3.91,1.94-8.14,3.71-12.61,5.32-3.33,1.2-6.79,2.31-10.33,3.33-3.87,1.11-7.85,2.1-11.89,2.98-1.41.31-2.83.6-4.26.88-1.12.22-2.31.44-3.55.66-1.33.23-2.72.47-4.17.7-2.38.37-4.93.73-7.62,1.07-9.56,1.19-20.97,2.07-33.35,2.07-8.08,0-16.57-.36-25.24-1.25-2.75-.28-5.51-.61-8.29-1.01-5.94-.84-11.93-1.94-17.89-3.35-1.65-.39-3.3-.8-4.95-1.24-5.59-1.5-10.55-3.02-14.97-4.57-8.26-2.89-14.62-5.84-19.62-8.76-2.47-1.45-4.62-2.89-6.49-4.31-1.38-1.05-2.62-2.09-3.74-3.12-.24-.22-.47-.43-.69-.65-.28-.26-.54-.52-.8-.79-.61-.61-1.18-1.21-1.72-1.81-1.46-1.61-2.67-3.17-3.76-4.66-.96-1.31-1.82-2.56-2.66-3.75-2.31-3.25-4.18-7.43-5.5-12.04-.56-1.96-1.02-4.01-1.38-6.09-.42-2.48-.69-5.02-.79-7.55-.02-.39-.03-.79-.03-1.18-.01-.64-.02-1.28,0-1.91.03-1.79.15-3.56.36-5.29.14-1.13.31-2.24.53-3.33.34-1.68.77-3.38,1.3-5.07.81-2.61,1.86-5.22,3.17-7.8,3.05-5.99,7.55-11.8,13.89-17,1.65-1.35,3.42-2.66,5.33-3.92.11-.07.22-.15.34-.23.14-.09.28-.18.42-.27.7-.45,1.42-.89,2.16-1.33,1-.59,2.03-1.17,3.09-1.74,4.11-2.19,8.72-4.18,13.88-5.9,1.9-.64,3.9-1.25,5.99-1.83,7.14-1.99,15.32-3.68,24.1-5,6.07-.92,12.43-1.67,18.92-2.23,3.09-.27,6.21-.5,9.35-.68,5.54-.33,11.13-.52,16.68-.57,11.46-.1,22.76.4,33.12,1.58,1.16.13,2.32.27,3.46.43,1.4.18,2.77.38,4.12.59.42.06.83.13,1.25.2,1.13.18,2.25.37,3.34.56,4.88.84,9.35,1.7,13.46,2.6,7.43,1.62,13.68,3.35,19.03,5.19,8.51,2.92,14.74,6.13,19.8,9.65,1.23.86,2.39,1.73,3.5,2.62,1.77,1.43,3.46,2.94,5.02,4.6.18.2.37.39.55.6.07.08.14.15.21.23.31.34.61.7.91,1.06,2.57,3.06,4.86,6.57,6.78,10.32,2.29,4.5,4.04,9.34,5.05,14.17.45,2.16.76,4.32.91,6.44.13,1.84.13,3.65,0,5.42-.04.53-.09,1.05-.14,1.58-.21,2.04-.52,4.07-.95,6.08-.18.84-.38,1.68-.6,2.51-.12.46-.25.93-.38,1.39-.27.91-.55,1.82-.87,2.72-.51,1.47-1.09,2.92-1.74,4.35-2.02,4.47-4.67,8.72-7.98,12.62-1.48,1.74-3.08,3.41-4.82,5-.65.59-1.31,1.17-1.99,1.73-.54.45-1.1.89-1.67,1.33Z"/>
      <path class="cls-3" d="M168.66,50.6c-.81,1.09-2.44,1.71-4.05,2.08-.57-.75-2.46-1.57-7.96-1.64-10.46-.15-18.01,0-22.17,0-3.68,0-6.75-.04-6.45,2.25-.96-.09-1.7-.19-2.17-.31-5.77-1.41-6.07-7.51-1.09-9.43,5.23-2.02,36.64-1.82,41.11-.24,4.08,1.44,3.96,5.7,2.78,7.29Z"/>
      <path class="cls-2" d="M167.05,215.79c-.25.05-.51.11-.79.2-.23.07-.46.15-.7.24-.24.09-.49.19-.74.3-.8.34-1.65.74-2.46,1.13-.54.25-1.07.5-1.57.71-.21.09-.43.18-.67.28-.72.3-1.57.64-2.52.98-.8.29-1.67.59-2.6.86-.93.28-1.9.54-2.92.76-1.01.22-2.06.41-3.12.54-.98.12-1.98.18-2.98.18h-1.04c-.8,0-1.61-.04-2.4-.12-1.06-.1-2.11-.27-3.12-.48-1.02-.21-2.01-.46-2.95-.73s-1.83-.56-2.66-.85c-.95-.34-1.81-.67-2.56-.97-.41-.17-.78-.32-1.12-.46-.34-.14-.69-.3-1.05-.47-.79-.36-1.61-.77-2.42-1.12-.45-.2-.9-.39-1.32-.55-.33-.12-.65-.23-.96-.31-.24-.07-.48-.12-.7-.15-.22-.03-.43-.04-.62-.03s-.37.04-.53.1c-.16.06-.3.15-.41.26-.02.02-.04.05-.07.07-.09.11-.16.22-.2.35-.05.15-.07.32-.05.5.02.18.07.37.15.56s.2.4.34.62c.17.25.37.51.61.77.31.34.68.69,1.1,1.04.74.62,1.65,1.24,2.68,1.82.65.37,1.35.72,2.09,1.04.29.13.57.25.86.38,1,.43,2.01.85,3.05,1.24.91.34,1.85.66,2.82.95.97.29,1.98.54,3.05.75,1.06.21,2.17.37,3.34.48,1.08.1,2.21.15,3.4.15h.33c1.3,0,2.52-.06,3.68-.18,1.17-.12,2.27-.29,3.33-.51,1.05-.22,2.06-.47,3.03-.77.97-.29,1.9-.62,2.81-.96,1.05-.4,2.07-.82,3.08-1.26.2-.09.4-.17.6-.26.85-.37,1.64-.78,2.37-1.21,1.02-.6,1.91-1.23,2.63-1.86.23-.2.43-.39.62-.59.19-.19.36-.38.51-.57.18-.23.34-.45.47-.66.11-.18.19-.35.25-.52.06-.17.1-.33.11-.48.01-.15,0-.3-.04-.43s-.1-.26-.2-.37c0,0-.01-.01-.02-.02-.09-.11-.2-.19-.32-.26-.13-.07-.27-.12-.42-.15-.15-.03-.32-.04-.5-.03-.18,0-.37.03-.57.06Z"/>
      <path class="cls-2" d="M191.67,220.81c1.04,0,2.09-.08,3.15-.25,5.89-.93,11.05-3.98,14.48-8.54,1.56-2.06,2.76-4.44,3.51-7.06.25-.87.45-1.76.6-2.68.45-2.75.42-5.73-.16-8.89-.02-.1-.04-.2-.05-.3-.71-3.67-2.09-7.05-3.97-9.98-1.19-1.86-2.58-3.54-4.14-5-.29-.27-.58-.54-.88-.79-3.81-3.25-8.47-5.2-13.42-5.31-1.18-.03-2.38.05-3.59.24-4.86.77-9.22,2.99-12.53,6.32-1.71,1.71-3.14,3.72-4.22,5.98-1.65,3.45-2.48,7.48-2.22,11.92.07,1.13.2,2.29.42,3.48.41,2.26,1.08,4.4,1.97,6.39,1.33,2.96,3.21,5.59,5.4,7.77,4.24,4.22,9.81,6.73,15.71,6.71-.04-.07,0-.12-.03-.19-.05-.08-.14-.17-.19-.25-.16-.28-.23-.57-.39-.87-.24-.45-.48-.91-.72-1.4-.41-.83-.97-1.71-1.33-2.6-.19-.48-.37-.97-.53-1.46-.23-.69-.42-1.38-.56-2.06-.03-.15-.06-.3-.09-.46-.21-1.16-.27-2.28-.11-3.3.03-.22.07-.43.11-.64.21-1.23.47-2.42.74-3.54.35-1.43.73-2.74,1.08-3.87.71-2.28,1.31-3.76,1.31-3.76h0s-.6,1.48-1.31,3.76c-.35,1.12-.73,2.44-1.08,3.87-.28,1.13-.53,2.32-.74,3.54-.04.21-.07.43-.11.64-.16,1.02-.1,2.15.11,3.3.03.15.05.3.09.46.14.68.34,1.37.56,2.06.16.49.34.98.53,1.46.35.9.75,1.77,1.16,2.6.24.48.48.95.72,1.4.16.3.32.58.48.86.05.08.09.17.14.25.04.07.08.13.12.2Z"/>
      <path class="cls-2" d="M97.64,220.42c1.03-.01,2.08-.1,3.14-.27,5.93-.96,11.34-4,15.19-8.53,1.75-2.05,3.17-4.41,4.18-7.02.33-.86.62-1.75.85-2.67.71-2.74.97-5.71.69-8.86,0-.1-.02-.2-.03-.3-.37-3.66-1.44-7.03-3.06-9.95-1.03-1.86-2.28-3.53-3.71-4.97-.27-.27-.54-.53-.82-.78-3.55-3.21-8.08-5.11-13.06-5.14-1.19,0-2.4.09-3.63.3-4.96.86-9.52,3.17-13.11,6.56-1.85,1.75-3.44,3.78-4.7,6.04-1.93,3.47-3.07,7.49-3.16,11.88-.02,1.12.02,2.27.14,3.43.22,2.23.72,4.33,1.44,6.27,1.08,2.9,2.7,5.46,4.68,7.57,3.84,4.09,9.14,6.5,14.98,6.43-.03-.06-.05-.13-.09-.19-.04-.08-.1-.16-.14-.24-.13-.27-.23-.53-.36-.82-.2-.44-.4-.89-.6-1.36-.34-.81-.66-1.66-.93-2.53-.15-.47-.28-.95-.4-1.43-.17-.67-.32-1.36-.41-2.03-.02-.15-.03-.3-.05-.45-.11-1.13-.02-2.21.24-3.21.06-.21.11-.42.17-.63.31-1.21.67-2.39,1.04-3.51.47-1.42.93-2.78,1.37-3.9.91-2.27,1.64-3.75,1.64-3.75h-.06s-.73,1.48-1.64,3.75c-.45,1.12-.94,2.42-1.41,3.84-.37,1.12-.73,2.3-1.04,3.51-.05.21-.11.42-.16.64-.25,1.01-.28,2.11-.18,3.25.01.15.03.3.05.45.08.67.22,1.35.38,2.02.12.48.25.96.4,1.43.28.88.59,1.73.93,2.54.2.47.4.93.6,1.36.13.29.27.57.4.83.04.08.08.16.12.24.03.07.07.13.1.19Z"/>
    </g>
  </g>
</svg>